<svg width="45" height="43" viewBox="0 0 45 43" fill="none" xmlns="http://www.w3.org/2000/svg">
<path d="M22.5 0.322998C10.1025 0.322998 0 9.86916 0 21.5839C0 33.2987 10.1025 42.8449 22.5 42.8449C34.8975 42.8449 45 33.2987 45 21.5839C45 9.86916 34.8975 0.322998 22.5 0.322998ZM32.2875 29.1741C31.9725 29.6843 31.41 29.9607 30.825 29.9607C30.5325 29.9607 30.24 29.897 29.97 29.7269L22.995 25.7936C21.2625 24.8156 19.98 22.6682 19.98 20.776V12.059C19.98 11.1873 20.745 10.4645 21.6675 10.4645C22.59 10.4645 23.355 11.1873 23.355 12.059V20.776C23.355 21.5414 24.03 22.6682 24.7275 23.0509L31.7025 26.9842C32.5125 27.4307 32.7825 28.4087 32.2875 29.1741Z" fill="white"/>
</svg>