<svg width="50" height="34" viewBox="0 0 50 34" fill="none" xmlns="http://www.w3.org/2000/svg">
<path d="M7.5 14.2216C10.2578 14.2216 12.5 12.1029 12.5 9.49691C12.5 6.89097 10.2578 4.77226 7.5 4.77226C4.74219 4.77226 2.5 6.89097 2.5 9.49691C2.5 12.1029 4.74219 14.2216 7.5 14.2216ZM42.5 14.2216C45.2578 14.2216 47.5 12.1029 47.5 9.49691C47.5 6.89097 45.2578 4.77226 42.5 4.77226C39.7422 4.77226 37.5 6.89097 37.5 9.49691C37.5 12.1029 39.7422 14.2216 42.5 14.2216ZM45 16.5839H40C38.625 16.5839 37.3828 17.108 36.4766 17.957C39.625 19.5885 41.8594 22.534 42.3438 26.0332H47.5C48.8828 26.0332 50 24.9775 50 23.6709V21.3085C50 18.7026 47.7578 16.5839 45 16.5839ZM25 16.5839C29.8359 16.5839 33.75 12.8854 33.75 8.31575C33.75 3.74612 29.8359 0.0476074 25 0.0476074C20.1641 0.0476074 16.25 3.74612 16.25 8.31575C16.25 12.8854 20.1641 16.5839 25 16.5839ZM31 18.9462H30.3516C28.7266 19.6844 26.9219 20.1274 25 20.1274C23.0781 20.1274 21.2812 19.6844 19.6484 18.9462H19C14.0312 18.9462 10 22.7555 10 27.4506V29.5767C10 31.533 11.6797 33.1202 13.75 33.1202H36.25C38.3203 33.1202 40 31.533 40 29.5767V27.4506C40 22.7555 35.9688 18.9462 31 18.9462ZM13.5234 17.957C12.6172 17.108 11.375 16.5839 10 16.5839H5C2.24219 16.5839 0 18.7026 0 21.3085V23.6709C0 24.9775 1.11719 26.0332 2.5 26.0332H7.64844C8.14062 22.534 10.375 19.5885 13.5234 17.957Z" fill="white"/>
</svg>
