<svg width="20" height="20" viewBox="0 0 20 20" fill="none" xmlns="http://www.w3.org/2000/svg">
<path d="M13.6585 2.29633C14.7231 2.2994 15.7431 2.70798 16.4958 3.43284C17.2486 4.15771 17.6729 5.13997 17.6761 6.16508V13.9017C17.6729 14.9269 17.2486 15.9091 16.4958 16.634C15.7431 17.3588 14.7231 17.7674 13.6585 17.7705H5.6243C4.55976 17.7674 3.53973 17.3588 2.78698 16.634C2.03423 15.9091 1.60994 14.9269 1.60676 13.9017V6.16508C1.60994 5.13997 2.03423 4.15771 2.78698 3.43284C3.53973 2.70798 4.55976 2.2994 5.6243 2.29633H13.6585ZM13.6585 0.749084H5.6243C2.53087 0.749084 0 3.18622 0 6.16508V13.9017C0 16.8806 2.53087 19.3177 5.6243 19.3177H13.6585C16.752 19.3177 19.2828 16.8806 19.2828 13.9017V6.16508C19.2828 3.18622 16.752 0.749084 13.6585 0.749084Z" fill="#802224"/>
<path d="M14.8633 6.16587C14.6249 6.16587 14.3919 6.09781 14.1937 5.97028C13.9956 5.84276 13.8411 5.66151 13.7499 5.44945C13.6587 5.23739 13.6348 5.00404 13.6813 4.77892C13.7278 4.5538 13.8426 4.34701 14.0111 4.1847C14.1797 4.0224 14.3944 3.91187 14.6282 3.86709C14.862 3.82231 15.1043 3.84529 15.3245 3.93313C15.5447 4.02097 15.7329 4.16972 15.8654 4.36057C15.9978 4.55142 16.0685 4.7758 16.0685 5.00533C16.0688 5.15782 16.0379 5.30888 15.9774 5.44984C15.917 5.59079 15.8282 5.71885 15.7163 5.82669C15.6043 5.93452 15.4713 6.01999 15.3249 6.0782C15.1785 6.1364 15.0217 6.1662 14.8633 6.16587ZM9.64102 6.93929C10.2767 6.93929 10.8981 7.1208 11.4266 7.46087C11.9551 7.80095 12.3671 8.28431 12.6103 8.84983C12.8536 9.41535 12.9172 10.0376 12.7932 10.638C12.6692 11.2383 12.3631 11.7898 11.9136 12.2226C11.4641 12.6555 10.8915 12.9502 10.268 13.0696C9.64458 13.1891 8.99837 13.1278 8.4111 12.8935C7.82382 12.6593 7.32187 12.2626 6.96872 11.7536C6.61557 11.2447 6.42707 10.6463 6.42707 10.0342C6.42798 9.21365 6.76689 8.42695 7.36942 7.84674C7.97196 7.26652 8.78891 6.94016 9.64102 6.93929ZM9.64102 5.39204C8.68757 5.39204 7.75554 5.6643 6.96278 6.17438C6.17002 6.68447 5.55214 7.40948 5.18727 8.25772C4.8224 9.10597 4.72694 10.0393 4.91294 10.9398C5.09895 11.8403 5.55808 12.6675 6.23227 13.3167C6.90645 13.9659 7.76542 14.408 8.70055 14.5872C9.63567 14.7663 10.605 14.6744 11.4858 14.323C12.3667 13.9716 13.1196 13.3766 13.6493 12.6132C14.179 11.8498 14.4617 10.9523 14.4617 10.0342C14.4617 8.80302 13.9538 7.62227 13.0498 6.7517C12.1457 5.88112 10.9196 5.39204 9.64102 5.39204Z" fill="#802224"/>
</svg>
