<svg width="20" height="21" viewBox="0 0 20 21" fill="none" xmlns="http://www.w3.org/2000/svg">
<path d="M18.5714 0.749084H1.42411C0.638393 0.749084 0 1.39641 0 2.19105V19.3071C0 20.1018 0.638393 20.7491 1.42411 20.7491H18.5714C19.3571 20.7491 20 20.1018 20 19.3071V2.19105C20 1.39641 19.3571 0.749084 18.5714 0.749084ZM6.04464 17.8919H3.08036V8.3473H6.04911V17.8919H6.04464ZM4.5625 7.04373C3.61161 7.04373 2.84375 6.27141 2.84375 5.32498C2.84375 4.37855 3.61161 3.60623 4.5625 3.60623C5.50893 3.60623 6.28125 4.37855 6.28125 5.32498C6.28125 6.27587 5.51339 7.04373 4.5625 7.04373ZM17.1562 17.8919H14.192V13.2491C14.192 12.1419 14.1696 10.7178 12.6518 10.7178C11.1071 10.7178 10.8705 11.9232 10.8705 13.1687V17.8919H7.90625V8.3473H10.75V9.65087H10.7902C11.1875 8.90087 12.1562 8.11069 13.5982 8.11069C16.5982 8.11069 17.1562 10.0884 17.1562 12.6598V17.8919Z" fill="#802224"/>
</svg>
