<svg width="50" height="30" viewBox="0 0 50 30" fill="none" xmlns="http://www.w3.org/2000/svg">
<path d="M33.9609 0.882324H27.25C26.625 0.882324 26.0234 1.10379 25.5625 1.50243L17.8828 8.14648C17.875 8.15386 17.8672 8.16862 17.8594 8.17601C16.5625 9.32764 16.5859 11.1658 17.6953 12.3101C18.6875 13.3362 20.7734 13.6094 22.0781 12.5094C22.0859 12.502 22.1016 12.502 22.1094 12.4946L28.3516 7.09081C28.8594 6.65526 29.6562 6.68479 30.1172 7.16464C30.5859 7.64448 30.5469 8.39009 30.0391 8.83303L28 10.5974L39.375 19.3232C39.6016 19.5004 39.8047 19.6923 39.9922 19.8917V5.60698L35.7266 1.57626C35.2656 1.13332 34.625 0.882324 33.9609 0.882324ZM42.5 5.62174V22.1506C42.5 23.4573 43.6172 24.513 45 24.513H50V5.62174H42.5ZM46.25 22.1506C45.5625 22.1506 45 21.6191 45 20.9695C45 20.3198 45.5625 19.7883 46.25 19.7883C46.9375 19.7883 47.5 20.3198 47.5 20.9695C47.5 21.6191 46.9375 22.1506 46.25 22.1506ZM0 24.5056H5C6.38281 24.5056 7.5 23.4499 7.5 22.1433V5.62174H0V24.5056ZM3.75 19.7883C4.4375 19.7883 5 20.3198 5 20.9695C5 21.6191 4.4375 22.1506 3.75 22.1506C3.0625 22.1506 2.5 21.6191 2.5 20.9695C2.5 20.3125 3.0625 19.7883 3.75 19.7883ZM37.8047 21.1614L26.1406 12.2141L23.7969 14.2442C21.4766 16.2448 17.9219 16.0529 15.8516 13.9194C13.75 11.749 13.9141 8.39009 16.1953 6.41164L22.5859 0.882324H16.0391C15.375 0.882324 14.7422 1.13332 14.2734 1.57626L10 5.60698V22.1359H11.4297L18.5 28.182C20.6406 29.8282 23.7891 29.5181 25.5312 27.4954L25.5469 27.4806L26.9453 28.6249C28.1875 29.5846 30.0234 29.4 31.0312 28.2262L33.4844 25.3767L33.9062 25.7015C34.9766 26.5209 36.5547 26.3733 37.4219 25.3545L38.1641 24.4908C39.0391 23.4721 38.875 21.9882 37.8047 21.1614Z" fill="white"/>
</svg>
