<svg width="50" height="48" viewBox="0 0 50 48" fill="none" xmlns="http://www.w3.org/2000/svg">
<path d="M9.16016 11.0634C8.70117 11.1649 8.99414 11.1464 8.61328 11.1926C6.98242 11.5248 8.19336 11.8201 9.16016 11.0634ZM37.8418 11.6816C37.959 11.6078 38.3691 11.2295 37.0898 10.8604C37.168 11.2387 36.8262 11.2018 36.8262 11.414C37.7734 12.2261 38.1641 13.6379 39.375 13.9332C39.6094 12.9182 38.3008 12.4199 37.8418 11.6816ZM8.29102 10.7681C8.4375 11.5894 9.0918 9.90067 9.10156 9.30087C8.84766 9.43928 8.59375 9.5777 8.33008 9.68843C8.94531 9.98372 8.4082 10.2975 7.74414 10.7681C6.39648 12.3553 9.00391 9.53156 8.29102 10.7681ZM25 0.488281C11.1914 0.488281 0 11.0634 0 24.1115C0 37.1505 11.1914 47.7348 25 47.7348C38.8086 47.7348 50 37.1505 50 24.1115C50 11.0634 38.8086 0.488281 25 0.488281ZM25.6641 8.40577L25.7812 8.44268C25.3125 9.0148 28.2227 10.685 26.1328 10.8235C24.1797 11.3494 26.9531 10.3436 25.4395 10.5189C26.2402 9.46697 24.8047 9.44851 25.6641 8.40577ZM13.8086 9.91913C13.1055 9.36546 10.8984 10.6758 11.6699 10.3621C13.584 9.65152 11.7969 10.4359 12.2461 11.2848C11.8359 12.0877 12.1094 10.4913 11.0938 11.4417C10.3613 11.5986 8.56445 13.1673 8.78906 12.6875C8.73047 13.4349 6.65039 14.3208 6.36719 15.5666C5.68359 17.2922 6.20117 15.502 6.07422 14.8283C5.09766 13.6564 3.32031 16.8123 3.84766 18.0581C4.73633 16.5816 4.66797 17.9012 4.02344 18.5564C4.67773 19.6914 3.42773 21.1679 4.66797 22.0076C5.21484 22.1276 6.30859 20.2728 5.83008 22.2014C6.16211 20.5311 6.74805 22.5982 7.69531 22.1368C7.75391 23.0134 8.33008 22.6074 8.45703 23.6686C10.0391 23.5579 11.4844 26.0863 9.59961 26.5661C9.88281 26.4923 10.4395 26.9629 11.084 26.6031C12.1777 27.4243 15.0586 27.5258 15.1367 29.556C13.1543 30.4511 14.6484 32.9057 12.9297 33.7823C10.957 33.5055 12.2559 36.08 11.4258 35.7848C11.7578 37.6395 9.43359 35.5448 10.332 36.5691C11.9824 37.5288 9.60938 37.335 10.3516 38.0363C9.52148 37.8702 10.8691 39.4943 11.0938 40.0942C12.2852 41.9213 10.0684 39.6881 9.41406 39.0791C8.78906 37.8979 7.31445 35.6371 6.9043 33.7823C6.66992 31.0878 4.46289 29.2791 3.95508 26.6492C3.44727 25.182 5.35156 22.8289 4.32617 22.0076C3.4375 21.3524 3.79883 19.1101 3.27148 17.9289C4.58984 12.5306 8.7793 7.98128 13.8086 5.28676C13.291 5.64664 16.7676 4.35474 16.3672 4.66849C16.2598 4.89919 18.3984 3.79185 19.6875 3.62575C19.5508 3.6442 16.3379 4.73309 17.2266 4.58544C15.8496 5.22216 17.0898 4.86228 17.7734 4.5393C16.4062 5.48977 15.3516 5.22216 13.7988 6.06189C12.2363 6.44946 12.5586 7.98128 11.4453 8.74719C12.0996 8.85793 13.7402 7.15078 14.6973 6.55097C16.8945 5.54514 13.584 8.37808 15.6738 7.16001C14.9707 7.77827 15.1172 8.76565 14.6875 9.04249C14.4727 8.98712 15.5371 9.52233 13.8086 9.91913ZM17.2266 5.67432C17.002 5.96039 16.6895 6.57865 16.5039 6.20031C16.25 6.32027 16.1523 6.83703 15.6738 6.42178C15.957 6.228 16.25 5.7666 15.6934 6.05267C15.9473 5.79429 18.2129 5.06529 18.0859 4.78845C18.4863 4.54853 18.4473 4.42857 17.9883 4.57621C17.7539 4.50239 18.5449 3.8749 19.5996 3.79185C19.7461 3.79185 19.8047 3.88412 19.541 3.85644C17.9492 4.31783 18.6328 4.18864 19.707 3.85644C19.2969 4.07791 19.0137 4.1425 18.9453 4.24401C20.0195 3.8749 18.8867 4.51162 19.1309 4.46548C18.8281 4.61312 19.1797 4.65926 18.5938 4.8715C18.7012 4.78845 17.6367 5.47131 18.2715 5.2683C17.6562 5.82197 17.3828 5.8312 17.2266 5.67432ZM18.1641 6.99391C18.1836 6.10803 19.5312 5.54514 19.3652 5.499C21.0254 4.76077 18.7891 5.52668 20.0977 4.86228C20.5859 4.81614 21.6211 3.33968 23.0566 3.2474C24.6387 2.79524 23.9062 3.27509 25.0781 2.85061L24.8438 3.03516C24.6387 3.06285 24.8926 3.40428 24.1504 3.92104C24.0723 4.72386 22.7344 4.35474 23.3984 5.21293C22.9688 4.63158 22.3242 5.19448 23.1348 5.24984C22.2656 5.87734 20.2441 5.98807 19.2773 7.03082C18.6523 7.87978 18.0762 7.61217 18.1641 6.99391ZM25.1074 9.94681C24.4434 11.4602 23.7988 9.72534 24.9707 9.44851C25.2637 9.59616 25.3809 9.64229 25.1074 9.94681ZM22.6074 6.92008C22.4121 6.23722 22.5684 6.59711 23.7305 6.27413C24.5312 6.81858 23.0176 7.17846 22.6074 6.92008ZM40.791 34.0038C39.873 32.5089 41.9043 31.1247 42.5879 29.8697C42.5 31.3369 42.3047 32.7857 40.791 34.0038ZM44.248 16.9231C43.252 16.9969 42.3535 17.2183 41.4551 16.6831C39.3848 14.5423 41.8359 19.1008 42.5195 17.2368C44.9805 18.1227 42.4805 21.943 40.9277 21.5462C40.0586 19.7745 38.9844 17.8274 37.0898 16.96C38.5449 18.4826 39.2676 20.3558 40.8301 21.7308C40.9375 23.6502 42.998 21.0294 42.8711 22.5151C43.0664 25.0712 39.8145 26.6031 40.3809 29.1684C41.5918 31.503 38.0469 31.9275 38.4473 34.0222C37.0215 35.5264 35.498 37.5565 32.9395 37.2335C32.9395 35.9601 32.2559 34.8804 32.0996 33.5701C30.7129 31.9091 33.5645 30.1281 31.7969 28.3933C29.7559 27.9595 32.2168 25.3019 30.1172 25.5511C28.8574 24.3607 27.0117 25.5142 25.2051 25.5234C22.9395 25.7264 20.6055 22.8935 21.6113 20.891C20.8105 18.8055 24.1504 18.1965 24.2383 16.3602C25.8398 15.0959 28.1152 15.2528 30.2832 14.9575C30.127 16.4248 31.7676 16.434 33.0078 16.9231C33.7012 15.3359 35.8594 17.1814 37.334 16.1756C37.8418 13.8317 35.8984 15.2436 34.7852 14.4961C33.4375 12.6321 37.666 13.5364 37.2266 12.5583C35.5859 12.5491 36.5137 10.6481 35.3516 11.7093C36.3965 11.8847 35.166 12.6598 35.1953 11.7739C33.6133 11.3402 35.1367 13.4718 34.3359 13.6749C33.1152 13.195 33.6914 14.2193 33.8184 14.3762C33.291 15.4558 32.6465 12.789 31.1523 12.8628C29.668 11.5801 30.5664 13.4442 31.8555 13.7487C31.582 13.8225 32.0117 14.8837 31.6699 14.4315C30.6055 13.0474 28.584 12.1246 27.3828 13.8225C27.2559 15.4097 23.8379 15.8619 24.3848 14.0071C23.584 12.0877 26.8652 13.9517 26.5625 12.4199C24.4531 11.1003 27.1387 11.5248 27.8516 10.2882C29.4727 10.3344 27.9199 9.03326 28.6816 8.65492C28.6035 10.0668 29.9219 9.79917 30.9668 9.53156C30.7129 8.71951 31.5918 8.74719 31.0547 8.07356C33.4766 7.16001 29.209 8.49804 30.0684 6.4956C29.0234 5.81274 29.6289 7.99974 30.0684 8.23044C30.0977 8.90407 29.4922 9.73457 28.6621 8.32271C27.4512 9.07017 27.5781 7.56603 27.5 7.7229C27.3633 7.14155 28.418 7.11387 28.4277 6.09881C28.3398 5.45286 28.3594 5.11143 28.8477 5.07452C28.8867 5.16679 30.8496 5.19448 31.543 5.96039C29.6484 5.6005 31.2598 6.25568 32.1094 6.62479C31.2012 5.95116 32.4707 6.62479 31.7285 5.85888C32.0215 5.91425 30.918 4.80691 32.0508 5.77583C31.4355 5.08374 33.252 5.28676 32.1777 4.77C33.75 5.18525 32.8223 4.80691 31.8945 4.42857C29.3359 2.98902 36.416 6.37564 33.5254 4.8715C35.3711 5.24984 29.5801 3.52424 32.2168 4.28092C31.2109 3.86567 32.1875 4.09637 33.0957 4.36397C31.4648 3.88412 29.0234 2.98902 29.1211 2.95211C29.6875 2.98902 30.2441 3.10899 30.7813 3.25663C32.4512 3.72725 30.3027 3.1459 30.7617 3.15513C36.5039 4.54853 41.5332 8.1843 44.5898 12.9366C45.3027 13.6472 47.2461 18.3441 46.2305 16.2587C46.6895 17.9197 46.7578 19.7099 47.002 21.4078C46.4941 20.8726 45.9277 18.8978 45.4395 17.7997C45.2344 18.2242 45 17.1999 44.248 16.9231Z" fill="white"/>
</svg>
